<?xml version="1.0" encoding="UTF-8" standalone="no"?>
<svg
   xmlns:dc="http://purl.org/dc/elements/1.1/"
   xmlns:cc="http://creativecommons.org/ns#"
   xmlns:rdf="http://www.w3.org/1999/02/22-rdf-syntax-ns#"
   xmlns:svg="http://www.w3.org/2000/svg"
   xmlns="http://www.w3.org/2000/svg"
   xmlns:xlink="http://www.w3.org/1999/xlink"
   xmlns:sodipodi="http://sodipodi.sourceforge.net/DTD/sodipodi-0.dtd"
   xmlns:inkscape="http://www.inkscape.org/namespaces/inkscape"
   version="1.1"
   viewBox="0 0 509.81274 125.40301"
   stroke-miterlimit="10"
   id="svg3759"
   sodipodi:docname="zphoto.svg"
   width="134.88795mm"
   height="33.179546mm"
   style="fill:none;stroke:none;stroke-linecap:square;stroke-miterlimit:10;enable-background:new"
   inkscape:version="0.92.3 (2405546, 2018-03-11)"
   enable-background="new">
  <metadata
     id="metadata3765">
    <rdf:RDF>
      <cc:Work
         rdf:about="">
        <dc:format>image/svg+xml</dc:format>
        <dc:type
           rdf:resource="http://purl.org/dc/dcmitype/StillImage" />
        <dc:title></dc:title>
        <dc:creator>
          <cc:Agent>
            <dc:title>Frank Zhang</dc:title>
          </cc:Agent>
        </dc:creator>
        <dc:publisher>
          <cc:Agent>
            <dc:title>ZLAB</dc:title>
          </cc:Agent>
        </dc:publisher>
        <dc:subject>
          <rdf:Bag>
            <rdf:li>ZPhoto</rdf:li>
          </rdf:Bag>
        </dc:subject>
      </cc:Work>
    </rdf:RDF>
  </metadata>
  <defs
     id="defs3763">
    <color-profile
       name="sRGB-IEC61966-2.1"
       xlink:href="C:\Windows\system32\spool\drivers\color\sRGB Color Space Profile.icm"
       id="color-profile40" />
  </defs>
  <sodipodi:namedview
     pagecolor="#ffffff"
     bordercolor="#666666"
     borderopacity="1"
     objecttolerance="10"
     gridtolerance="10"
     guidetolerance="10"
     inkscape:pageopacity="0"
     inkscape:pageshadow="2"
     inkscape:window-width="1920"
     inkscape:window-height="1018"
     id="namedview3761"
     showgrid="false"
     units="mm"
     width="115mm"
     inkscape:zoom="1.1666667"
     inkscape:cx="188.27428"
     inkscape:cy="27.117297"
     inkscape:window-x="-8"
     inkscape:window-y="-8"
     inkscape:window-maximized="1"
     inkscape:current-layer="layer1" />
  <clipPath
     id="p.0">
    <path
       d="M 0,0 H 960 V 720 H 0 Z"
       id="path3740"
       inkscape:connector-curvature="0"
       style="clip-rule:nonzero" />
  </clipPath>
  <g
     clip-path="url(#p.0)"
     id="g3757"
     transform="translate(-246.68872,-296)">
    <path
       d="M 0,0 H 960 V 720 H 0 Z"
       id="path3743"
       inkscape:connector-curvature="0"
       style="fill:#000000;fill-opacity:0;fill-rule:evenodd" />
  </g>
  <g
     inkscape:groupmode="layer"
     id="layer1"
     inkscape:label="Layer 1"
     style="display:inline;opacity:1;"
     transform="translate(-246.68872,-296)">
    <path
       d="m 250.92578,296 v 18.45166 h 49.34112 l -53.57818,64.10248 v 17.35822 h 84.26263 V 377.4607 h -55.0133 l 53.64651,-64.10246 V 296 Z"
       id="path3745"
       inkscape:connector-curvature="0"
       style="fill:#ff0000;fill-rule:evenodd;stroke:none;stroke-linecap:square;stroke-miterlimit:10"
       inkscape:export-xdpi="96"
       inkscape:export-ydpi="96" />
    <path
       d="m 466.1269,296 v 99.91235 h 19.81848 v -38.61182 c 0,-6.78839 1.19214,-11.82272 3.57642,-15.10302 2.39947,-3.28031 6.35559,-4.92044 11.86828,-4.92044 4.60154,0 7.86664,1.45031 9.79535,4.35095 1.94385,2.88544 2.91583,7.15286 2.91583,12.80228 v 41.48205 h 19.88678 V 350.6716 c 0,-9.97757 -2.08813,-17.31265 -6.26446,-22.00531 -4.16113,-4.69266 -10.8432,-7.03897 -20.04623,-7.03897 -4.37375,0 -8.48929,1.10861 -12.34668,3.32586 -3.8422,2.20203 -6.81119,5.10267 -8.90693,8.70188 h -0.47836 V 296 Z"
       id="path3749"
       inkscape:connector-curvature="0"
       style="display:inline;fill:#ff0000;fill-rule:evenodd;stroke:none;stroke-linecap:square;stroke-miterlimit:10" />
    <path
       d="m 416.85413,336.59366 c 5.74051,0 10.09146,2.16409 13.05283,6.49228 2.96139,4.32815 4.44207,9.95477 4.44207,16.87985 0,7.28955 -1.49588,12.93893 -4.48764,16.94818 -2.97656,4.00928 -7.22119,6.01389 -12.73391,6.01389 -5.64942,0 -9.95481,-2.09574 -12.91617,-6.28723 -2.96137,-4.1915 -4.44208,-9.74976 -4.44208,-16.67484 0,-7.38068 1.48071,-13.12118 4.44208,-17.22156 2.96136,-4.10037 7.17566,-6.15057 12.64282,-6.15057 z m 4.51041,-14.96634 c -4.69266,0 -8.87656,0.91119 -12.5517,2.73358 -3.65997,1.82239 -6.6745,4.6243 -9.04361,8.40576 h -0.27335 v -9.22583 h -18.86169 v 97.86218 h 19.81845 V 386.9599 h 0.3417 c 2.36908,3.50809 5.46714,6.2113 9.29416,8.10962 3.82703,1.88312 7.95017,2.82471 12.36945,2.82471 9.70422,0 17.42657,-3.55368 23.16711,-10.66098 5.74051,-7.1073 8.61078,-16.01423 8.61078,-26.72074 0,-11.57217 -2.91583,-20.94226 -8.74746,-28.11032 -5.83164,-7.18326 -13.87293,-10.77487 -24.12384,-10.77487 z"
       id="path3747"
       inkscape:connector-curvature="0"
       style="fill:#ff0000;fill-rule:evenodd;stroke:none;stroke-linecap:square;stroke-miterlimit:10" />
    <path
       d="m 718.84644,336.59366 c 5.92273,0 10.36481,2.07297 13.32617,6.2189 2.96143,4.14594 4.44208,9.81812 4.44208,17.01654 0,7.33512 -1.52625,13.02246 -4.57874,17.06211 -3.05249,4.02444 -7.40344,6.03665 -13.05285,6.03665 -5.42157,0 -9.6966,-1.94388 -12.82507,-5.83164 -3.11323,-3.90295 -4.66987,-9.65866 -4.66987,-17.26712 0,-7.79071 1.55664,-13.60714 4.66987,-17.44934 3.12847,-3.85739 7.35791,-5.7861 12.68841,-5.7861 z m 0.13666,-14.96634 c -11.43549,0 -20.52466,3.50809 -27.26746,10.52429 -6.74286,7.01618 -10.11426,16.24201 -10.11426,27.67749 0,11.43549 3.42456,20.63855 10.27375,27.60916 6.86425,6.97065 15.90027,10.45597 27.10797,10.45597 11.2077,0 20.25885,-3.46256 27.15356,-10.38764 6.90991,-6.92505 10.36481,-16.15088 10.36481,-27.67749 0,-11.48105 -3.41693,-20.71444 -10.25092,-27.70028 -6.83392,-7.00101 -15.92309,-10.5015 -27.26745,-10.5015 z"
       id="path3755"
       inkscape:connector-curvature="0"
       style="fill:#ff0000;fill-rule:evenodd;stroke:none;stroke-linecap:square;stroke-miterlimit:10" />
    <path
       d="m 639.84595,301.8772 v 21.66364 h -12.02777 v 13.3262 h 12.02777 v 43.12222 c 0,5.28491 1.67053,9.40048 5.01154,12.34668 3.35626,2.931 9.33978,4.39652 17.95056,4.39652 1.95904,0 3.94848,-0.0456 5.96826,-0.13669 2.03503,-0.0911 3.87262,-0.27335 5.51276,-0.54673 v -15.51306 c -0.86567,0.18222 -1.82239,0.31891 -2.87024,0.41004 -1.04792,0.0911 -2.14136,0.13668 -3.28034,0.13668 -3.3714,0 -5.61902,-0.57711 -6.7428,-1.73129 -1.10864,-1.16934 -1.66296,-3.23471 -1.66296,-6.1961 v -36.28827 h 14.55633 V 323.54083 H 659.73273 V 301.8772 Z"
       id="path3753"
       inkscape:connector-curvature="0"
       style="fill:#ff0000;fill-rule:evenodd;stroke:none;stroke-linecap:square;stroke-miterlimit:10" />
    <path
       d="m 584.0809,336.59366 c 5.92279,0 10.36487,2.07297 13.32623,6.2189 2.96137,4.14594 4.44208,9.81812 4.44208,17.01654 0,7.33512 -1.52624,13.02246 -4.57873,17.06211 -3.0525,4.02444 -7.40345,6.03665 -13.05286,6.03665 -5.42163,0 -9.69666,-1.94388 -12.82507,-5.83164 -3.11322,-3.90295 -4.66986,-9.65866 -4.66986,-17.26712 0,-7.79071 1.55664,-13.60714 4.66986,-17.44934 3.12841,-3.85739 7.35791,-5.7861 12.68835,-5.7861 z m 0.13672,-14.96634 c -11.43549,0 -20.52466,3.50809 -27.26746,10.52429 -6.74286,7.01618 -10.11426,16.24201 -10.11426,27.67749 0,11.43549 3.42457,20.63855 10.27369,27.60916 6.86432,6.97065 15.90033,10.45597 27.10803,10.45597 11.20764,0 20.25885,-3.46256 27.15356,-10.38764 6.90985,-6.92505 10.36481,-16.15088 10.36481,-27.67749 0,-11.48105 -3.41699,-20.71444 -10.25092,-27.70028 -6.83392,-7.00101 -15.92309,-10.5015 -27.26745,-10.5015 z"
       id="path3751"
       inkscape:connector-curvature="0"
       style="fill:#ff0000;fill-rule:evenodd;stroke:none;stroke-linecap:square;stroke-miterlimit:10" />
  </g>
</svg>
